<svg xmlns="http://www.w3.org/2000/svg" version="1.1" xmlns:xlink="http://www.w3.org/1999/xlink" xmlns:svgjs="http://svgjs.dev/svgjs" viewBox="0 0 1422 800"><defs><filter id="uuunion-blur" x="-100%" y="-100%" width="400%" height="400%" color-interpolation-filters="sRGB">
        <feGaussianBlur in="SourceGraphic" stdDeviation="0.5 1.5" result="blur"></feGaussianBlur>
        <feDropShadow stdDeviation="7.384615384615385" in="blur" dx="6" dy="6" flood-color="hsl(0, 0%, 22%)" flood-opacity="0.14" x="0%" y="0%" width="100%" height="100%"></feDropShadow>
      </filter><filter id="uuunion-blur2" x="-100%" y="-100%" width="400%" height="400%" color-interpolation-filters="sRGB">
        <feGaussianBlur in="SourceGraphic" stdDeviation="0.5 1.5" result="blur"></feGaussianBlur>
        <feDropShadow stdDeviation="7.384615384615385" in="blur" dx="-6" dy="-6" flood-color="hsl(0, 0%, 22%)" flood-opacity="0.14" x="0%" y="0%" width="100%" height="100%"></feDropShadow>
      </filter><linearGradient gradientTransform="rotate(93, 0.5, 0.5)" x1="50%" y1="0%" x2="50%" y2="100%" id="uuunion-grad"><stop stop-color="hsl(0, 0%, 0%)" offset="10%"></stop><stop stop-color="hsl(0, 0%, 22%)" offset="90%"></stop></linearGradient><linearGradient gradientTransform="rotate(250, 0.5, 0.5)" x1="50%" y1="0%" x2="50%" y2="100%" id="uuunion-grad2"><stop stop-color="hsl(0, 0%, 0%)" offset="25%"></stop><stop stop-color="hsl(0, 0%, 22%)" offset="100%"></stop></linearGradient><linearGradient gradientTransform="rotate(210, 0.5, 0.5)" x1="50%" y1="0%" x2="50%" y2="100%" id="uuunion-grad3"><stop stop-color="hsl(0, 0%, 0%)" offset="0%"></stop><stop stop-color="hsl(0, 0%, 22%)" offset="75%"></stop></linearGradient></defs><path d="M-135.32 -86.94Q-122.21 -85.53 -109.1 -83.83 -95.99 -81.91 -82.88 -79.89 -69.77 -77.88 -56.65 -75.98 -43.54 -74.3 -30.43 -72.93 -17.32 -71.95 -4.21 -71.4 8.89 -71.32 22.01 -71.71 35.12 -72.56 48.23 -73.81 61.34 -75.39 74.45 -77.23 87.56 -79.22 100.68 -81.25 113.79 -83.21 126.9 -84.99 140.01 -86.51 153.12 -87.67 166.23 -88.41 179.35 -88.69 192.46 -88.5 205.57 -87.85 218.68 -86.77 231.79 -85.32 244.9 -83.58 258.02 -81.64 271.13 -79.62 284.24 -77.61 297.35 -75.74 310.46 -74.1 323.58 -72.78 336.69 -71.85 349.8 -71.36 362.91 -71.35 376.02 -71.8 389.13 -72.71 402.25 -74 415.36 -75.63 428.47 -77.49 441.58 -79.49 454.69 -81.52 467.8 -83.46 480.92 -85.22 494.03 -86.69 507.14 -87.79 520.25 -88.47 533.36 -88.69 546.47 -88.44 559.59 -87.73 572.7 -86.59 585.81 -85.1 598.92 -83.33 612.03 -81.37 625.15 -79.34 638.26 -77.35 651.37 -75.5 664.48 -73.9 677.59 -72.63 690.7 -71.75 703.82 -71.33 716.93 -71.38 730.04 -71.9 743.15 -72.86 756.26 -74.21 769.37 -75.87 782.49 -77.76 795.6 -79.77 808.71 -81.79 821.82 -83.71 834.93 -85.43 848.05 -86.86 861.16 -87.91 874.27 -88.53 887.38 -88.69 900.49 -88.37 913.6 -87.6 926.72 -86.41 939.83 -84.87 952.94 -83.07 966.05 -81.1 979.16 -79.07 992.27 -77.09 1005.39 -75.27 1018.5 -73.71 1031.61 -72.48 1044.72 -71.67 1057.83 -71.31 1070.95 -71.42 1084.06 -72 1097.17 -73.02 1110.28 -74.41 1123.39 -76.11 1136.5 -78.02 1149.62 -80.04 1162.73 -82.06 1175.84 -83.96 1188.95 -85.65 1202.06 -87.03 1215.18 -88.02 1228.29 -88.58 1241.4 -88.67 1254.51 -88.29 1267.62 -87.46 1280.73 -86.22 1293.85 -84.64 1306.96 -82.81 1320.07 -80.83 1333.18 -78.8 1346.29 -76.83 1359.41 -75.04 1372.52 -73.52 1385.63 -72.35 1398.74 -71.59 1411.85 -71.3 1424.96 -71.48 1438.08 -72.12 1451.19 -73.19 1464.3 -74.63 1477.41 -76.36 1490.52 -78.29 1503.64 -80.32 1516.75 -82.32 1531.14 -77.61 1528.73 -56.18 1532.69 -41.34 1543.45 -26.51 1558.68 -11.67 1575.1 3.15 1589.17 17.99 1597.85 32.83 1599.27 47.66 1593.13 62.5 1580.74 77.33 1564.78 92.17 1548.7 107 1535.96 121.84 1529.31 136.68 1530.19 151.51 1538.4 166.35 1552.18 181.18 1568.55 196.02 1583.98 210.86 1595.14 225.69 1599.63 240.53 1596.47 255.36 1586.35 270.2 1571.45 285.04 1554.98 299.87 1540.51 314.71 1531.14 329.54 1528.9 344.38 1534.28 359.21 1546.11 374.05 1561.84 388.89 1578.08 403.72 1591.33 418.56 1598.72 433.39 1598.66 448.23 1591.17 463.07 1577.86 477.9 1561.6 492.74 1545.9 507.57 1534.15 522.41 1528.88 537.25 1531.23 552.08 1540.69 566.92 1555.22 581.75 1571.69 596.59 1586.54 611.43 1596.57 626.26 1599.62 641.1 1595.02 655.93 1583.77 670.77 1568.3 685.6 1551.95 700.44 1538.23 715.28 1530.12 730.11 1529.36 744.95 1536.11 759.78 1548.92 774.62 1565.03 789.46 1580.96 804.29 1593.27 819.13 1599.31 833.96 1597.77 848.8 1588.99 863.64 1575.4 868.25 1561.82 873.49 1548.23 879.1 1534.64 884.75 1521.05 890.14 1507.47 894.98 1493.88 899.01 1480.29 902 1466.7 903.79 1453.12 904.28 1439.53 903.46 1425.94 901.35 1412.35 898.08 1398.77 893.83 1385.18 888.83 1371.59 883.34 1358 877.67 1344.42 872.13 1330.83 867.01 1317.24 862.61 1303.65 859.15 1290.07 856.82 1276.48 855.76 1262.89 856.01 1249.3 857.58 1235.72 860.36 1222.13 864.21 1208.54 868.92 1194.95 874.24 1181.36 879.87 1167.78 885.5 1154.19 890.84 1140.6 895.58 1127.01 899.48 1113.43 902.31 1099.84 903.93 1086.25 904.25 1072.66 903.25 1059.08 900.98 1045.49 897.56 1031.9 893.19 1018.31 888.11 1004.73 882.58 991.14 876.91 977.55 871.41 963.96 866.37 950.38 862.08 936.79 858.76 923.2 856.6 909.61 855.71 896.03 856.15 882.44 857.88 868.85 860.82 855.26 864.8 841.68 869.61 828.09 874.99 814.5 880.63 800.91 886.25 787.33 891.52 773.74 896.16 760.15 899.93 746.56 902.61 732.98 904.05 719.39 904.19 705.8 903.01 692.21 900.58 678.63 897.02 665.04 892.54 651.45 887.38 637.86 881.81 624.28 876.15 610.69 870.69 597.1 865.74 583.51 861.57 569.93 858.4 556.34 856.41 542.75 855.7 529.16 856.31 515.58 858.21 501.99 861.3 488.4 865.41 474.81 870.31 461.23 875.74 447.64 881.4 434.05 886.98 420.46 892.19 406.88 896.73 393.29 900.36 379.7 902.88 366.11 904.15 352.53 904.11 338.94 902.75 325.35 900.16 311.76 896.47 298.18 891.88 284.59 886.64 271 881.05 257.41 875.39 243.83 869.99 230.24 865.13 216.65 861.08 203.06 858.06 189.48 856.23 175.89 855.7 162.3 856.49 148.71 858.56 135.13 861.8 121.54 866.03 107.95 871.02 94.36 876.5 80.78 882.16 67.19 887.71 53.6 892.84 40.01 897.27 26.43 900.76 12.84 903.12 -0.74 904.22 -14.33 904 -27.91 902.47 -41.5 899.72 -55.09 895.9 -68.68 891.21 -82.26 885.9 -95.85 880.28 -109.44 874.64 -123.03 869.29 -136.61 864.53 -150.2 860.61 -153.04 845.8 -153.53 831 -151.58 816.19 -147.6 801.38 -142.45 786.58 -137.25 771.77 -133.11 756.97 -130.92 742.16 -131.17 727.36 -133.79 712.55 -138.23 697.75 -143.51 682.94 -148.51 668.13 -152.15 653.33 -153.63 638.52 -152.65 623.72 -149.41 608.91 -144.61 594.11 -139.28 579.3 -134.59 564.5 -131.53 549.69 -130.77 534.89 -132.47 520.08 -136.27 505.27 -141.35 490.47 -146.6 475.66 -150.9 460.86 -153.33 446.05 -153.34 431.25 -150.95 416.44 -146.67 401.64 -141.42 386.83 -136.34 372.02 -132.52 357.22 -130.78 342.41 -131.5 327.61 -134.53 312.8 -139.21 298 -144.53 283.19 -149.35 268.39 -152.62 253.58 -153.64 238.77 -152.19 223.97 -148.58 209.16 -143.59 194.36 -138.3 179.55 -133.85 164.75 -131.19 149.94 -130.91 135.14 -133.06 120.33 -137.18 105.53 -142.38 90.72 -147.53 75.91 -151.54 61.11 -153.52 46.3 -153.06 31.5 -150.26 16.69 -145.71 1.89 -140.4 -12.91 -135.48 -27.71 -132 -42.52 -130.72 -57.33 -131.92 -72.13 -135.32 -86.94" fill="url(#uuunion-grad)"></path><path d="M-135.33 -86.94Q-131.93 -72.13 -130.73 -57.33 -132.01 -42.52 -135.49 -27.72 -140.41 -12.91 -145.72 1.89 -150.27 16.69 -153.07 31.5 -153.53 46.3 -151.55 61.11 -147.54 75.91 -142.39 90.72 -137.19 105.52 -133.07 120.33 -130.92 135.13 -131.2 149.94 -133.86 164.75 -138.31 179.55 -143.6 194.36 -148.59 209.16 -152.2 223.97 -153.65 238.77 -152.63 253.58 -149.36 268.38 -144.54 283.19 -139.22 298 -134.54 312.8 -131.51 327.61 -130.79 342.41 -132.53 357.22 -134.46 380.28 -123.69 390.51 -114.82 392.73 -105.95 395.11 -97.08 397.62 -88.21 400.19 -79.34 402.75 -70.46 405.24 -61.59 407.6 -52.72 409.79 -43.85 411.73 -34.98 413.39 -26.11 414.72 -17.24 415.7 -0.47 416.44 2.48 416.48 14.25 412.89 25.95 408.69 37.58 403.94 49.13 398.69 60.6 393.04 71.99 387.07 83.3 380.91 94.53 374.65 105.68 368.44 116.76 362.36 127.78 356.55 138.74 351.1 149.64 346.09 160.49 341.59 171.31 337.66 182.1 334.31 192.86 331.55 203.61 329.37 214.36 327.72 225.12 326.55 235.89 325.78 246.68 325.32 257.5 325.06 268.35 324.9 279.25 324.72 290.2 324.42 301.2 323.88 312.26 323.01 323.38 321.74 334.56 319.98 345.8 317.7 357.1 314.87 368.46 311.47 379.87 307.52 391.34 303.06 402.85 298.15 414.4 292.84 425.98 287.23 437.59 281.41 449.21 275.49 460.84 269.56 472.47 263.75 484.09 258.14 495.68 252.83 507.24 247.9 518.76 243.41 530.22 239.42 541.63 235.95 552.96 233.01 564.21 230.59 575.38 228.66 586.46 227.17 597.44 226.06 608.32 225.25 619.09 224.65 629.76 224.16 640.32 223.68 650.78 223.11 661.13 222.36 671.39 221.34 681.56 219.96 691.64 218.18 701.65 215.94 711.59 213.21 721.47 209.98 731.31 206.25 741.12 202.06 750.91 197.45 760.71 192.47 770.51 187.2 780.34 181.73 790.22 176.14 800.15 170.52 810.16 164.98 820.26 159.59 830.46 154.45 840.79 149.63 851.24 145.19 861.84 141.18 872.59 137.62 883.5 134.54 894.58 131.91 905.84 129.73 917.28 127.95 928.9 126.52 940.7 125.37 952.68 124.42 964.84 123.6 977.17 122.8 989.67 121.96 1002.31 120.97 1015.1 119.77 1028.01 118.27 1041.04 116.42 1054.16 114.18 1067.35 111.52 1080.6 108.42 1093.89 104.88 1107.19 100.93 1120.48 96.6 1133.74 91.94 1146.94 87 1160.06 81.86 1173.09 76.61 1185.99 71.31 1198.74 66.05 1211.33 60.91 1223.73 55.97 1235.93 51.29 1247.91 46.92 1259.66 42.92 1271.16 39.32 1282.41 36.12 1293.4 33.32 1304.12 30.91 1314.57 28.86 1324.75 27.13 1334.67 25.66 1344.33 24.38 1353.74 23.22 1362.92 22.11 1371.87 20.97 1389.09 18.2 1405.81 14.72 1413.95 12.45 1422 9.82 1405.59 -7.95 1393.97 -25.73 1390.52 -43.5 1396.25 -61.28 1409.5 -79.06 1426.39 -96.84 1441.99 -114.62 1451.77 -132.4 1439.14 -132.88 1426.5 -133.7 1413.87 -134.8 1401.24 -136.15 1388.61 -137.67 1375.98 -139.31 1363.34 -140.97 1350.71 -142.59 1338.08 -144.09 1325.45 -145.4 1312.82 -146.46 1300.18 -147.21 1287.55 -147.64 1274.92 -147.7 1262.29 -147.41 1249.66 -146.77 1237.02 -145.82 1224.39 -144.6 1211.76 -143.17 1199.13 -141.58 1186.5 -139.92 1173.86 -138.27 1161.23 -136.7 1148.6 -135.28 1135.97 -134.07 1123.34 -133.15 1110.7 -132.54 1098.07 -132.28 1085.44 -132.38 1072.81 -132.83 1060.18 -133.61 1047.54 -134.69 1034.91 -136.02 1022.28 -137.53 1009.65 -139.16 997.02 -140.83 984.38 -142.45 971.75 -143.96 959.12 -145.29 946.49 -146.37 933.86 -147.16 921.22 -147.61 908.59 -147.71 895.96 -147.45 883.33 -146.84 870.7 -145.92 858.06 -144.72 845.43 -143.3 832.8 -141.72 820.17 -140.07 807.54 -138.41 794.9 -136.83 782.27 -135.39 769.64 -134.17 757.01 -133.22 744.38 -132.58 731.74 -132.29 719.11 -132.35 706.48 -132.77 693.85 -133.53 681.22 -134.59 668.58 -135.9 655.95 -137.4 643.32 -139.01 630.69 -140.68 618.06 -142.31 605.42 -143.84 592.79 -145.19 580.16 -146.29 567.53 -147.1 554.9 -147.59 542.26 -147.72 529.63 -147.49 517 -146.91 504.37 -146.01 491.74 -144.83 479.1 -143.43 466.47 -141.87 453.84 -140.22 441.21 -138.56 428.58 -136.96 415.94 -135.51 403.31 -134.27 390.68 -133.29 378.05 -132.62 365.42 -132.3 352.78 -132.33 340.15 -132.72 327.52 -133.45 314.89 -134.48 302.26 -135.77 289.62 -137.26 276.99 -138.87 264.36 -140.53 251.73 -142.17 239.1 -143.71 226.46 -145.08 213.83 -146.21 201.2 -147.05 188.57 -147.56 175.94 -147.72 163.3 -147.52 150.67 -146.97 138.04 -146.1 125.41 -144.95 112.78 -143.56 100.14 -142.01 87.51 -140.36 74.88 -138.7 62.25 -137.1 49.62 -135.63 36.98 -134.37 24.35 -133.36 11.72 -132.67 -0.9 -132.31 -13.53 -132.32 -26.17 -132.68 -38.8 -133.38 -51.43 -134.38 -64.06 -135.65 -76.69 -137.12 -89.33 -138.73 -101.96 -140.39 -114.59 -142.03 -127.22 -143.58 -139.85 -144.97 -155.82 -139.07 -151.49 -117.02 -143.16 -102 -135.33 -86.94" fill="url(#uuunion-grad2)" filter="url(#uuunion-blur)"></path><path d="M1404.83 334.93Q1413.58 335.19 1422.34 335.07 1431.09 334.59 1439.85 333.76 1448.6 332.59 1457.36 331.12 1466.11 329.37 1474.87 327.4 1483.62 325.25 1492.38 322.97 1501.13 320.62 1509.88 318.25 1518.64 315.93 1527.39 313.7 1534.2 319.35 1528.9 344.38 1535.86 361.69 1551.08 379 1570.12 396.3 1587.44 413.61 1597.98 430.92 1598.66 448.23 1589.29 465.54 1572.6 482.85 1553.46 500.16 1537.45 517.46 1529.24 534.77 1531.23 552.08 1542.83 569.39 1560.67 586.7 1579.53 604.01 1593.92 621.32 1599.64 638.62 1595.02 655.93 1581.41 673.24 1562.77 690.55 1544.55 707.86 1532.06 725.17 1528.95 742.48 1536.11 759.78 1551.47 777.09 1570.54 794.4 1587.76 811.71 1598.1 829.02 1598.56 846.33 1588.99 863.64 1576.53 867.84 1564.07 872.59 1551.6 877.69 1539.14 882.89 1526.68 887.96 1514.21 892.67 1501.75 896.79 1489.29 900.14 1476.82 902.57 1464.36 903.97 1451.9 904.26 1439.43 903.45 1426.97 901.55 1414.51 898.67 1402.04 894.94 1389.58 890.51 1377.12 885.61 1364.65 880.45 1352.19 875.27 1339.73 870.3 1327.26 865.78 1314.8 861.91 1302.34 858.87 1289.87 856.8 1277.41 855.79 1264.95 855.89 1252.48 857.1 1240.02 859.35 1227.56 862.56 1215.09 866.56 1202.63 871.18 1190.17 876.2 1177.7 881.4 1165.24 886.53 1152.78 891.36 1140.31 895.67 1127.85 899.27 1115.39 901.98 1102.92 903.68 1090.46 904.29 1078 903.8 1065.54 902.21 1053.07 899.6 1040.61 896.09 1028.15 891.85 1015.68 887.06 1003.22 881.95 990.76 876.75 978.29 871.7 965.83 867.02 953.37 862.95 940.9 859.65 928.44 857.29 915.98 855.97 903.51 855.75 891.05 856.64 878.59 858.6 866.12 861.54 853.66 865.33 841.2 869.79 828.73 874.72 816.27 879.89 803.81 885.07 791.34 890.01 778.88 894.5 766.42 898.31 753.95 901.29 741.49 903.3 729.03 904.23 716.56 904.05 704.1 902.77 691.64 900.45 679.17 897.19 666.71 893.14 654.25 888.48 641.78 883.44 629.32 878.24 616.86 873.12 604.39 868.32 591.93 864.05 579.47 860.51 567 857.87 554.54 856.24 542.08 855.7 529.61 856.27 517.15 857.93 504.69 860.6 492.23 864.16 479.76 868.45 467.3 873.27 454.84 878.39 442.37 883.59 429.91 888.62 417.45 893.26 404.98 897.29 392.52 900.53 380.06 902.82 367.59 904.07 355.13 904.22 342.67 903.25 330.2 901.22 317.74 898.22 305.28 894.38 292.81 889.88 280.35 884.92 267.89 879.74 255.42 874.58 242.96 869.66 230.5 865.21 218.03 861.45 205.57 858.53 193.11 856.6 180.64 855.74 168.18 855.99 155.72 857.34 143.25 859.73 130.79 863.05 118.33 867.15 105.86 871.84 93.4 876.9 80.94 882.1 68.47 887.2 56.01 891.98 43.55 896.2 31.08 899.69 18.62 902.27 -0.77 898.98 -8.46 883.97 -8.5 873.8 -7.81 863.64 -6.46 853.48 -4.58 843.32 -0.92 828.07 0.99 823 14.82 816.1 28.43 808.13 41.79 799.2 54.89 789.44 67.72 779.02 80.29 768.14 92.63 757.04 104.76 745.94 116.73 735.09 128.58 724.68 140.35 714.93 152.11 705.99 163.89 697.98 175.74 690.97 187.68 685 199.76 680.04 211.97 676.03 224.33 672.83 236.84 670.31 249.47 668.27 262.2 666.51 275 664.82 287.85 662.97 300.69 660.76 313.49 657.99 326.21 654.51 338.82 650.19 351.3 644.95 363.62 638.74 375.79 631.58 387.79 623.52 399.65 614.65 411.39 605.12 423.05 595.07 434.66 584.7 446.28 574.21 457.95 563.8 469.73 553.67 481.67 544 493.82 534.95 506.22 526.65 518.89 519.19 531.86 512.61 545.13 506.93 558.68 502.1 572.49 498.05 586.53 494.66 600.74 491.8 615.05 489.29 629.39 486.95 643.68 484.59 657.85 482.02 671.8 479.08 685.46 475.61 698.77 471.49 711.66 466.61 724.1 460.92 736.06 454.4 747.55 447.09 758.56 439.03 769.16 430.32 779.38 421.09 789.31 411.49 799.04 401.68 808.17 397.62 817.28 393.6 826.37 389.7 835.44 386 844.51 382.56 853.55 379.46 862.59 376.73 871.61 374.43 880.62 372.58 889.63 371.21 898.63 370.3 907.62 369.86 916.6 369.85 925.59 370.24 934.57 370.98 943.56 372.02 952.54 373.28 961.53 374.69 970.53 376.18 979.53 377.66 988.54 379.06 997.56 380.3 1006.6 381.3 1015.65 382.01 1024.71 382.36 1033.79 382.32 1042.89 381.84 1052.01 380.91 1061.16 379.52 1070.32 377.67 1079.52 375.39 1088.74 372.69 1097.98 369.63 1107.26 366.27 1116.57 362.65 1125.92 358.85 1135.29 354.95 1144.71 351.02 1154.16 347.14 1163.65 343.39 1173.18 339.83 1182.75 336.54 1192.36 333.57 1202.01 330.97 1211.71 328.78 1221.45 327.03 1231.24 325.73 1241.07 324.87 1250.95 324.46 1260.87 324.45 1270.85 324.82 1280.87 325.52 1290.94 326.48 1301.05 327.66 1311.22 328.96 1321.43 330.32 1331.69 331.67 1342 332.93 1352.36 334.02 1362.76 334.88 1373.21 335.45 1383.7 335.67 1394.24 335.51 1404.83 334.93" fill="url(#uuunion-grad3)" filter="url(#uuunion-blur2)"></path></svg>