<svg xmlns="http://www.w3.org/2000/svg" version="1.1" xmlns:xlink="http://www.w3.org/1999/xlink" xmlns:svgjs="http://svgjs.dev/svgjs" viewBox="0 0 1422 800"><defs><filter id="uuunion-blur" x="-100%" y="-100%" width="400%" height="400%" color-interpolation-filters="sRGB">
        <feGaussianBlur in="SourceGraphic" stdDeviation="1.5 1" result="blur"></feGaussianBlur>
        <feDropShadow stdDeviation="12.307692307692308" in="blur" dx="10" dy="10" flood-color="hsl(0, 0%, 20%)" flood-opacity="0.06" x="0%" y="0%" width="100%" height="100%"></feDropShadow>
      </filter><filter id="uuunion-blur2" x="-100%" y="-100%" width="400%" height="400%" color-interpolation-filters="sRGB">
        <feGaussianBlur in="SourceGraphic" stdDeviation="1.5 1" result="blur"></feGaussianBlur>
        <feDropShadow stdDeviation="12.307692307692308" in="blur" dx="-10" dy="-10" flood-color="hsl(0, 0%, 20%)" flood-opacity="0.06" x="0%" y="0%" width="100%" height="100%"></feDropShadow>
      </filter><linearGradient gradientTransform="rotate(231, 0.5, 0.5)" x1="50%" y1="0%" x2="50%" y2="100%" id="uuunion-grad"><stop stop-color="hsl(0, 0%, 6%)" offset="10%"></stop><stop stop-color="hsl(0, 0%, 20%)" offset="90%"></stop></linearGradient><linearGradient gradientTransform="rotate(72, 0.5, 0.5)" x1="50%" y1="0%" x2="50%" y2="100%" id="uuunion-grad2"><stop stop-color="hsl(0, 0%, 6%)" offset="25%"></stop><stop stop-color="hsl(0, 0%, 20%)" offset="100%"></stop></linearGradient><linearGradient gradientTransform="rotate(94, 0.5, 0.5)" x1="50%" y1="0%" x2="50%" y2="100%" id="uuunion-grad3"><stop stop-color="hsl(0, 0%, 6%)" offset="0%"></stop><stop stop-color="hsl(0, 0%, 20%)" offset="75%"></stop></linearGradient></defs><path d="M-128.53 -86.54Q-115.63 -85.21 -102.73 -83.61 -89.83 -81.8 -76.93 -79.9 -64.03 -78 -51.12 -76.21 -38.22 -74.63 -25.32 -73.34 -12.42 -72.41 0.47 -71.89 13.37 -71.82 26.27 -72.19 39.18 -72.99 52.08 -74.16 64.98 -75.66 77.88 -77.39 90.78 -79.26 103.68 -81.18 116.58 -83.02 129.49 -84.71 142.39 -86.13 155.29 -87.23 168.19 -87.93 181.09 -88.19 193.99 -88.01 206.89 -87.4 219.8 -86.38 232.7 -85.01 245.6 -83.37 258.5 -81.55 271.4 -79.64 284.3 -77.75 297.2 -75.98 310.11 -74.44 323.01 -73.19 335.91 -72.32 348.81 -71.86 361.71 -71.84 374.61 -72.27 387.51 -73.12 400.42 -74.35 413.32 -75.88 426.22 -77.64 439.12 -79.52 452.02 -81.43 464.92 -83.26 477.82 -84.92 490.73 -86.3 503.63 -87.35 516.53 -87.99 529.43 -88.19 542.33 -87.96 555.23 -87.28 568.13 -86.21 581.04 -84.8 593.94 -83.13 606.84 -81.29 619.74 -79.38 632.64 -77.5 645.54 -75.76 658.44 -74.25 671.35 -73.05 684.25 -72.23 697.15 -71.83 710.05 -71.88 722.95 -72.37 735.85 -73.27 748.76 -74.54 761.66 -76.11 774.56 -77.89 787.46 -79.78 800.36 -81.69 813.26 -83.5 826.16 -85.12 839.07 -86.47 851.97 -87.46 864.87 -88.04 877.77 -88.19 890.67 -87.89 903.57 -87.16 916.47 -86.04 929.38 -84.59 942.28 -82.89 955.18 -81.04 968.08 -79.12 980.98 -77.26 993.88 -75.54 1006.78 -74.07 1019.69 -72.92 1032.59 -72.15 1045.49 -71.81 1058.39 -71.92 1071.29 -72.46 1084.19 -73.42 1097.1 -74.74 1110 -76.34 1122.9 -78.14 1135.8 -80.04 1148.7 -81.94 1161.6 -83.73 1174.5 -85.32 1187.41 -86.62 1200.31 -87.56 1213.21 -88.09 1226.11 -88.17 1239.01 -87.82 1251.91 -87.03 1264.81 -85.86 1277.72 -84.38 1290.62 -82.65 1303.52 -80.78 1316.42 -78.87 1329.32 -77.01 1342.22 -75.33 1355.13 -73.89 1368.03 -72.79 1380.93 -72.08 1393.83 -71.8 1406.73 -71.97 1419.63 -72.57 1432.53 -73.58 1445.44 -74.94 1458.34 -76.57 1471.24 -78.39 1484.14 -80.3 1497.04 -82.19 1509.94 -83.96 1522.85 -85.52 1527.04 -70.74 1533.33 -55.97 1541.36 -41.2 1550.68 -26.42 1560.76 -11.65 1571.04 3.11 1580.93 17.88 1589.87 32.66 1597.37 47.43 1603 62.2 1606.43 76.98 1607.48 91.75 1606.09 106.52 1602.34 121.29 1596.43 136.07 1588.71 150.84 1579.6 165.61 1569.62 180.38 1559.34 195.16 1549.33 209.93 1540.16 224.7 1532.34 239.48 1526.33 254.25 1522.44 269.02 1520.92 283.79 1521.83 298.57 1525.14 313.34 1530.65 328.11 1538.05 342.89 1546.93 357.66 1556.78 372.43 1567.05 387.2 1577.16 401.98 1586.54 416.75 1594.65 431.52 1601.05 446.29 1605.37 461.07 1607.36 475.84 1606.92 490.61 1604.07 505.39 1598.97 520.16 1591.91 534.93 1583.28 549.7 1573.58 564.48 1563.34 579.25 1553.16 594.02 1543.6 608.8 1535.2 623.57 1528.43 638.34 1523.68 653.11 1521.22 667.89 1521.19 682.66 1523.58 697.43 1528.26 712.2 1534.97 726.98 1543.33 741.75 1552.86 756.52 1563.04 771.3 1573.28 786.07 1583.01 800.84 1591.67 815.61 1598.79 830.39 1603.95 845.16 1606.87 859.93 1593.1 865.59 1579.32 872.02 1565.55 878.89 1551.78 885.83 1538 892.44 1524.23 898.38 1510.45 903.31 1496.68 906.98 1482.9 909.17 1469.13 909.78 1455.35 908.77 1441.58 906.19 1427.8 902.18 1414.03 896.96 1400.25 890.82 1386.48 884.1 1372.7 877.14 1358.93 870.35 1345.15 864.08 1331.38 858.67 1317.6 854.43 1303.83 851.58 1290.05 850.27 1276.28 850.59 1262.51 852.5 1248.73 855.92 1234.96 860.64 1221.18 866.42 1207.41 872.93 1193.63 879.84 1179.86 886.75 1166.08 893.29 1152.31 899.11 1138.53 903.89 1124.76 907.36 1110.98 909.35 1097.21 909.74 1083.43 908.51 1069.66 905.72 1055.88 901.54 1042.11 896.18 1028.33 889.94 1014.56 883.16 1000.79 876.21 987.01 869.46 973.24 863.29 959.46 858.02 945.69 853.96 931.91 851.31 918.14 850.22 904.36 850.75 890.59 852.88 876.81 856.48 863.04 861.36 849.26 867.26 835.49 873.85 821.71 880.78 807.94 887.66 794.16 894.13 780.39 899.82 766.62 904.44 752.84 907.72 739.07 909.5 725.29 909.67 711.52 908.22 697.74 905.24 683.97 900.88 670.19 895.38 656.42 889.05 642.64 882.22 628.87 875.28 615.09 868.59 601.32 862.52 587.54 857.4 573.77 853.51 559.99 851.07 546.22 850.2 532.45 850.95 518.67 853.28 504.9 857.07 491.12 862.11 477.35 868.12 463.57 874.78 449.8 881.72 436.02 888.57 422.25 894.95 408.47 900.51 394.7 904.96 380.92 908.05 367.15 909.62 353.37 909.57 339.6 907.9 325.83 904.72 312.05 900.2 298.28 894.57 284.5 888.15 270.73 881.29 256.95 874.35 243.18 867.72 229.4 861.76 215.63 856.8 201.85 853.09 188.08 850.85 174.3 850.2 160.53 851.17 146.76 853.71 132.98 857.68 119.21 862.87 105.43 868.99 91.66 875.7 77.88 882.66 64.11 889.46 50.33 895.75 36.56 901.19 22.78 905.46 9.01 908.36 -4.76 909.7 -18.53 909.43 -32.31 907.56 -46.08 904.19 -59.85 899.5 -73.63 893.74 -87.4 887.24 -101.18 880.35 -114.95 873.43 -128.73 866.87 -142.5 861.03 -156.28 856.22 -155.31 841.49 -153.61 826.76 -151.26 812.03 -148.4 797.3 -145.18 782.56 -141.8 767.83 -138.44 753.1 -135.3 738.37 -132.54 723.64 -130.32 708.91 -128.77 694.18 -127.99 679.45 -128 664.72 -128.81 649.99 -130.38 635.26 -132.61 620.53 -135.38 605.8 -138.54 591.07 -141.9 576.33 -145.28 561.6 -148.49 546.87 -151.34 532.14 -153.67 517.41 -155.35 502.68 -156.29 487.95 -156.44 473.22 -155.78 458.49 -154.35 443.76 -152.24 429.03 -149.56 414.3 -146.47 399.57 -143.13 384.84 -139.74 370.1 -136.48 355.37 -133.55 340.64 -131.11 325.91 -129.29 311.18 -128.2 296.45 -127.9 281.72 -128.4 266.99 -129.68 252.26 -131.67 237.53 -134.25 222.8 -137.28 208.07 -140.58 193.34 -143.98 178.61 -147.27 163.87 -150.28 149.14 -152.83 134.41 -154.78 119.68 -156.02 104.95 -156.48 90.22 -156.13 75.49 -155 60.76 -153.14 46.03 -150.66 31.3 -147.71 16.57 -144.44 1.84 -141.05 -12.88 -137.72 -27.61 -134.65 -42.35 -131.99 -57.08 -129.92 -71.81 -128.53 -86.54" fill="url(#uuunion-grad)"></path><path d="M-128.54 -86.54Q-129.93 -71.81 -132 -57.08 -134.66 -42.35 -137.73 -27.62 -141.06 -12.89 -144.45 1.84 -147.72 16.57 -150.67 31.3 -153.15 46.03 -155.01 60.76 -156.14 75.49 -156.49 90.22 -156.03 104.95 -154.79 119.68 -152.84 134.41 -150.29 149.14 -147.28 163.87 -143.99 178.6 -140.59 193.33 -137.29 208.07 -134.26 222.8 -131.68 237.53 -129.69 252.26 -128.41 266.99 -127.91 281.72 -128.21 296.45 -129.3 311.18 -131.12 325.91 -133.56 340.64 -136.49 355.37 -139.75 370.1 -143.14 384.83 -134.23 386.8 -125.32 389.08 -116.42 391.63 -107.51 394.38 -98.6 397.26 -89.69 400.22 -80.79 403.16 -71.88 406.03 -62.97 408.76 -54.07 411.27 -45.16 413.51 -36.25 415.42 -27.34 416.95 -18.44 418.08 -1.6 418.93 1.36 418.98 12.93 415.3 24.46 410.93 35.95 405.93 47.41 400.36 58.82 394.32 70.2 387.93 81.53 381.31 92.82 374.61 104.08 367.94 115.29 361.45 126.47 355.25 137.6 349.48 148.7 344.21 159.76 339.53 170.78 335.49 181.77 332.12 192.73 329.43 203.65 327.39 214.55 325.95 225.41 325.06 236.25 324.62 247.07 324.52 257.86 324.65 268.64 324.88 279.39 325.1 290.14 325.16 300.87 324.96 311.59 324.38 322.3 323.33 333.01 321.74 343.72 319.55 354.44 316.74 365.15 313.3 375.88 309.24 386.61 304.6 397.36 299.45 408.12 293.87 418.9 287.95 429.7 281.8 440.52 275.54 451.37 269.29 462.24 263.16 473.15 257.27 484.09 251.72 495.06 246.59 506.07 241.96 517.12 237.88 528.2 234.39 539.33 231.48 550.5 229.15 561.71 227.37 572.96 226.07 584.26 225.18 595.6 224.62 606.99 224.29 618.43 224.07 629.91 223.86 641.44 223.55 653.01 223.03 664.62 222.21 676.28 221 687.98 219.33 699.73 217.16 711.51 214.45 723.33 211.2 735.19 207.4 747.08 203.1 759 198.34 770.96 193.19 782.94 187.72 794.95 182.04 806.98 176.23 819.02 170.41 831.09 164.66 843.17 159.1 855.26 153.81 867.35 148.86 879.45 144.33 891.55 140.27 903.64 136.69 915.72 133.62 927.8 131.05 939.85 128.95 951.89 127.28 963.91 125.98 975.9 124.97 987.85 124.18 999.78 123.5 1011.66 122.86 1023.51 122.16 1035.31 121.3 1047.06 120.2 1058.75 118.79 1070.4 117 1081.98 114.8 1093.5 112.14 1104.96 109.02 1116.35 105.45 1127.67 101.44 1138.92 97.04 1150.09 92.29 1161.19 87.26 1172.2 82.03 1183.14 76.67 1194 71.28 1204.78 65.94 1215.47 60.73 1226.08 55.73 1236.6 51.01 1247.04 46.62 1257.39 42.61 1267.67 39.01 1277.86 35.82 1287.96 33.05 1297.99 30.68 1307.93 28.67 1317.8 26.98 1327.6 25.55 1337.32 24.31 1346.96 23.19 1356.55 22.11 1366.06 21 1375.52 19.77 1384.91 18.36 1394.25 16.71 1403.55 14.76 1412.79 12.47 1422 9.82 1411.44 -8.05 1401.69 -25.94 1393.5 -43.83 1387.49 -61.71 1384.13 -79.6 1383.68 -97.49 1386.15 -115.38 1391.38 -133.26 1379.4 -133.69 1367.42 -134.41 1355.44 -135.39 1343.45 -136.58 1331.47 -137.94 1319.49 -139.38 1307.51 -140.86 1295.53 -142.3 1283.54 -143.63 1271.56 -144.79 1259.58 -145.72 1247.6 -146.4 1235.62 -146.77 1223.63 -146.83 1211.65 -146.57 1199.67 -146.01 1187.69 -145.16 1175.71 -144.08 1163.72 -142.81 1151.74 -141.4 1139.76 -139.93 1127.78 -138.47 1115.79 -137.07 1103.81 -135.81 1091.83 -134.75 1079.85 -133.92 1067.87 -133.39 1055.88 -133.15 1043.9 -133.24 1031.92 -133.64 1019.94 -134.34 1007.96 -135.29 995.97 -136.47 983.99 -137.81 972.01 -139.25 960.03 -140.73 948.05 -142.17 936.06 -143.52 924.08 -144.69 912.1 -145.65 900.12 -146.35 888.14 -146.75 876.15 -146.84 864.17 -146.61 852.19 -146.07 840.21 -145.25 828.23 -144.18 816.24 -142.92 804.26 -141.53 792.28 -140.06 780.3 -138.59 768.32 -137.19 756.33 -135.91 744.35 -134.83 732.37 -133.99 720.39 -133.42 708.41 -133.16 696.42 -133.22 684.44 -133.59 672.46 -134.26 660.48 -135.2 648.49 -136.36 636.51 -137.69 624.53 -139.13 612.55 -140.6 600.57 -142.05 588.58 -143.4 576.6 -144.6 564.62 -145.58 552.64 -146.3 540.66 -146.73 528.67 -146.84 516.69 -146.64 504.71 -146.13 492.73 -145.33 480.75 -144.28 468.76 -143.04 456.78 -141.65 444.8 -140.19 432.82 -138.72 420.84 -137.31 408.85 -136.02 396.87 -134.92 384.89 -134.05 372.91 -133.46 360.93 -133.17 348.94 -133.2 336.96 -133.55 324.98 -134.19 313 -135.11 301.02 -136.25 289.03 -137.57 277.05 -139 265.07 -140.47 253.09 -141.93 241.11 -143.29 229.12 -144.5 217.14 -145.5 205.16 -146.25 193.18 -146.7 181.2 -146.84 169.21 -146.67 157.23 -146.18 145.25 -145.41 133.27 -144.39 121.28 -143.16 109.3 -141.78 97.32 -140.32 85.34 -138.85 73.36 -137.43 61.37 -136.12 49.39 -135 37.41 -134.11 25.43 -133.5 13.45 -133.18 1.46 -133.19 -10.51 -133.51 -22.49 -134.13 -34.47 -135.02 -46.45 -136.14 -58.44 -137.45 -70.42 -138.87 -82.4 -140.34 -94.38 -141.8 -106.36 -143.18 -118.35 -144.4 -134 -138.38 -133.82 -116.44 -130.78 -101.51 -128.54 -86.54" fill="url(#uuunion-grad2)" filter="url(#uuunion-blur)"></path><path d="M1386.06 336.9Q1403.28 336.85 1420.49 335.57 1429.1 334.25 1437.71 332.58 1446.31 330.6 1454.92 328.37 1463.53 325.94 1472.14 323.36 1480.74 320.7 1489.35 318.02 1497.96 315.39 1506.57 312.88 1515.17 310.53 1523.78 308.42 1529.59 325.65 1538.05 342.89 1548.52 360.12 1560.19 377.36 1572.16 394.59 1583.53 411.82 1593.41 429.06 1601.05 446.29 1605.87 463.53 1607.49 480.76 1605.79 498 1600.91 515.23 1593.21 532.47 1583.28 549.7 1571.89 566.94 1559.91 584.17 1548.26 601.41 1537.84 618.64 1529.43 635.88 1523.68 653.11 1521.05 670.35 1521.72 687.58 1525.65 704.82 1532.53 722.05 1541.84 739.29 1552.86 756.52 1564.76 773.76 1576.61 790.99 1587.51 808.23 1596.62 825.46 1603.24 842.7 1606.87 859.93 1594.24 865.08 1581.6 870.92 1568.97 877.17 1556.33 883.55 1543.7 889.77 1531.06 895.54 1518.43 900.59 1505.79 904.7 1493.16 907.68 1480.52 909.39 1467.89 909.76 1455.25 908.75 1442.62 906.43 1429.99 902.9 1417.35 898.32 1404.72 892.9 1392.08 886.88 1379.45 880.55 1366.81 874.19 1354.18 868.11 1341.54 862.56 1328.91 857.82 1316.27 854.09 1303.64 851.55 1291 850.31 1278.37 850.43 1265.73 851.91 1253.1 854.68 1240.46 858.61 1227.83 863.52 1215.19 869.18 1202.56 875.34 1189.92 881.71 1177.29 888.01 1164.65 893.93 1152.02 899.22 1139.38 903.63 1126.75 906.95 1114.11 909.04 1101.48 909.79 1088.84 909.18 1076.21 907.23 1063.57 904.04 1050.94 899.74 1038.3 894.53 1025.67 888.66 1013.03 882.39 1000.4 876.01 987.76 869.82 975.13 864.09 962.49 859.09 949.86 855.05 937.22 852.15 924.59 850.53 911.95 850.26 899.32 851.35 886.68 853.76 874.05 857.37 861.41 862.01 848.78 867.48 836.14 873.53 823.51 879.87 810.87 886.22 798.24 892.28 785.6 897.78 772.97 902.46 760.33 906.11 747.7 908.57 735.06 909.72 722.43 909.5 709.79 907.93 697.16 905.08 684.52 901.08 671.89 896.11 659.25 890.41 646.62 884.22 633.98 877.85 621.35 871.57 608.71 865.68 596.08 860.44 583.44 856.1 570.81 852.86 558.17 850.86 545.54 850.2 532.9 850.9 520.27 852.93 507.63 856.21 495 860.58 482.36 865.84 469.73 871.74 457.09 878.03 444.46 884.4 431.82 890.58 419.19 896.27 406.55 901.21 393.92 905.18 381.28 907.99 368.65 909.52 356.01 909.7 343.38 908.52 330.74 906.03 318.11 902.34 305.47 897.63 292.84 892.11 280.2 886.04 267.57 879.69 254.93 873.35 242.3 867.32 229.66 861.87 217.03 857.25 204.39 853.67 191.76 851.3 179.12 850.25 166.49 850.56 153.85 852.21 141.22 855.15 128.59 859.22 115.95 864.24 103.32 869.99 90.68 876.19 78.05 882.57 65.41 888.83 52.78 894.69 40.14 899.87 27.51 904.14 14.87 907.31 -3.89 904.39 -9.42 889.34 -8.61 879.12 -7.61 868.89 -6.44 858.67 -5.14 848.44 -2.74 833.1 -1.25 828 12.2 820.94 25.57 812.59 38.85 803.07 52.04 792.54 65.12 781.21 78.11 769.35 90.98 757.21 103.76 745.09 116.42 733.26 128.99 722 141.47 711.52 153.86 702.03 166.17 693.67 178.41 686.53 190.59 680.64 202.72 675.96 214.82 672.42 226.89 669.86 238.95 668.1 251.01 666.92 263.09 666.07 275.19 665.28 287.32 664.3 299.51 662.88 311.75 660.79 324.05 657.84 336.43 653.88 348.89 648.81 361.44 642.6 374.07 635.24 386.79 626.82 399.6 617.44 412.5 607.26 425.48 596.49 438.53 585.34 451.66 574.06 464.86 562.88 478.11 552.05 491.4 541.76 504.72 532.22 518.06 523.57 531.4 515.91 544.73 509.29 558.04 503.73 571.31 499.17 584.52 495.52 597.66 492.65 610.71 490.39 623.67 488.52 636.51 486.85 649.24 485.15 661.83 483.2 674.27 480.8 686.57 477.78 698.71 473.98 710.7 469.3 722.52 463.69 734.19 457.11 745.7 449.6 757.06 441.23 768.27 432.12 779.35 422.42 790.3 412.29 801.15 401.93 810.54 397.45 819.91 393.01 829.27 388.71 838.62 384.65 847.95 380.88 857.28 377.5 866.58 374.56 875.88 372.11 885.17 370.18 894.44 368.79 903.7 367.94 912.95 367.62 922.19 367.8 931.41 368.44 940.63 369.48 949.83 370.85 959.03 372.48 968.21 374.28 977.39 376.17 986.55 378.05 995.71 379.83 1004.86 381.43 1014 382.76 1023.13 383.74 1032.25 384.33 1041.36 384.45 1050.47 384.08 1059.57 383.19 1068.66 381.78 1077.75 379.84 1086.83 377.4 1095.91 374.49 1104.98 371.18 1114.05 367.51 1123.11 363.55 1132.17 359.39 1141.23 355.12 1150.28 350.81 1159.33 346.57 1168.38 342.46 1177.42 338.59 1186.47 335.02 1195.51 331.81 1204.56 329.03 1213.6 326.72 1222.64 324.9 1231.69 323.6 1240.74 322.8 1249.78 322.5 1258.83 322.67 1267.89 323.27 1276.95 324.23 1286.01 325.5 1295.07 327 1304.14 328.65 1313.22 330.37 1322.3 332.06 1331.38 333.65 1340.48 335.05 1349.58 336.19 1358.69 337 1367.8 337.42 1376.93 337.39 1386.06 336.9" fill="url(#uuunion-grad3)" filter="url(#uuunion-blur2)"></path></svg>