<svg xmlns="http://www.w3.org/2000/svg" version="1.1" xmlns:xlink="http://www.w3.org/1999/xlink" xmlns:svgjs="http://svgjs.dev/svgjs" viewBox="0 0 1422 800"><defs><filter id="uuunion-blur" x="-100%" y="-100%" width="400%" height="400%" color-interpolation-filters="sRGB">
        <feGaussianBlur in="SourceGraphic" stdDeviation="1.5 1" result="blur"></feGaussianBlur>
        <feDropShadow stdDeviation="12.307692307692308" in="blur" dx="10" dy="10" flood-color="hsl(0, 0%, 30%)" flood-opacity="0.06" x="0%" y="0%" width="100%" height="100%"></feDropShadow>
      </filter><filter id="uuunion-blur2" x="-100%" y="-100%" width="400%" height="400%" color-interpolation-filters="sRGB">
        <feGaussianBlur in="SourceGraphic" stdDeviation="1.5 1" result="blur"></feGaussianBlur>
        <feDropShadow stdDeviation="12.307692307692308" in="blur" dx="-10" dy="-10" flood-color="hsl(0, 0%, 30%)" flood-opacity="0.06" x="0%" y="0%" width="100%" height="100%"></feDropShadow>
      </filter><linearGradient gradientTransform="rotate(231, 0.5, 0.5)" x1="50%" y1="0%" x2="50%" y2="100%" id="uuunion-grad"><stop stop-color="hsl(0, 0%, 18%)" offset="10%"></stop><stop stop-color="hsl(0, 0%, 30%)" offset="90%"></stop></linearGradient><linearGradient gradientTransform="rotate(72, 0.5, 0.5)" x1="50%" y1="0%" x2="50%" y2="100%" id="uuunion-grad2"><stop stop-color="hsl(0, 0%, 18%)" offset="25%"></stop><stop stop-color="hsl(0, 0%, 30%)" offset="100%"></stop></linearGradient><linearGradient gradientTransform="rotate(94, 0.5, 0.5)" x1="50%" y1="0%" x2="50%" y2="100%" id="uuunion-grad3"><stop stop-color="hsl(0, 0%, 18%)" offset="0%"></stop><stop stop-color="hsl(0, 0%, 30%)" offset="75%"></stop></linearGradient></defs><path d="M-135.25 -89.29Q-122.14 -88.94 -109.04 -87.8 -95.94 -85.99 -82.84 -83.65 -69.74 -81 -56.64 -78.25 -43.53 -75.66 -30.43 -73.45 -17.33 -71.8 -4.23 -70.88 8.86 -70.74 21.96 -71.41 35.07 -72.83 48.17 -74.87 61.27 -77.36 74.37 -80.08 87.47 -82.79 100.57 -85.26 113.68 -87.27 126.78 -88.64 139.88 -89.27 152.98 -89.08 166.08 -88.1 179.18 -86.42 192.29 -84.17 205.39 -81.57 218.49 -78.82 231.59 -76.18 244.69 -73.87 257.79 -72.09 270.9 -71.01 284 -70.7 297.1 -71.21 310.2 -72.48 323.3 -74.4 336.4 -76.82 349.51 -79.51 362.61 -82.24 375.71 -84.78 388.81 -86.9 401.91 -88.42 415.01 -89.2 428.12 -89.18 441.22 -88.37 454.32 -86.82 467.42 -84.68 480.52 -82.13 493.63 -79.4 506.73 -76.71 519.83 -74.32 532.93 -72.41 546.03 -71.17 559.13 -70.7 572.24 -71.03 585.34 -72.15 598.44 -73.95 611.54 -76.28 624.64 -78.93 637.74 -81.68 650.85 -84.27 663.95 -86.5 677.05 -88.15 690.15 -89.1 703.25 -89.26 716.35 -88.6 729.46 -87.2 742.56 -85.17 755.66 -82.69 768.76 -79.97 781.86 -77.26 794.96 -74.78 808.07 -72.76 821.17 -71.37 834.27 -70.73 847.37 -70.9 860.47 -71.86 873.58 -73.53 886.68 -75.76 899.78 -78.36 912.88 -81.11 925.98 -83.75 939.08 -86.07 952.19 -87.86 965.29 -88.97 978.39 -89.29 991.49 -88.8 1004.59 -87.55 1017.69 -85.64 1030.8 -83.23 1043.9 -80.55 1057 -77.81 1070.1 -75.27 1083.2 -73.14 1096.31 -71.6 1109.41 -70.8 1122.51 -70.8 1135.61 -71.59 1148.71 -73.13 1161.81 -75.26 1174.92 -77.8 1188.02 -80.53 1201.12 -83.22 1214.22 -85.62 1227.32 -87.54 1240.42 -88.8 1253.53 -89.29 1266.63 -88.97 1279.73 -87.87 1292.83 -86.08 1305.93 -83.77 1319.04 -81.12 1332.14 -78.38 1345.24 -75.77 1358.34 -73.54 1371.44 -71.87 1384.54 -70.9 1397.65 -70.73 1410.75 -71.36 1423.85 -72.75 1436.95 -74.77 1450.05 -77.24 1463.16 -79.96 1476.26 -82.67 1489.36 -85.16 1502.46 -87.19 1515.56 -88.6 1528.66 -89.25 1541.77 -89.11 1538.39 -74.23 1538.97 -59.36 1543.44 -44.49 1551.1 -29.62 1560.78 -14.75 1570.98 0.11 1580.13 14.99 1586.84 29.86 1590.06 44.73 1589.31 59.6 1584.69 74.47 1576.92 89.34 1567.19 104.21 1557.01 119.09 1547.92 133.96 1541.35 148.83 1538.28 163.7 1539.2 178.57 1543.97 193.44 1551.84 208.31 1561.62 223.19 1571.79 238.06 1580.8 252.93 1587.25 267.8 1590.15 282.67 1589.06 297.54 1584.15 312.41 1576.17 327.29 1566.35 342.16 1556.19 357.03 1547.27 371.9 1540.95 386.77 1538.2 401.64 1539.46 416.51 1544.51 431.39 1552.6 446.26 1562.47 461.13 1572.6 476 1581.44 490.87 1587.63 505.74 1590.21 520.61 1588.8 535.49 1583.6 550.36 1575.41 565.23 1565.5 580.1 1555.39 594.97 1546.63 609.84 1540.58 624.71 1538.15 639.59 1539.74 654.46 1545.08 669.33 1553.37 684.2 1563.32 699.07 1573.4 713.94 1582.07 728.81 1587.99 743.69 1590.25 758.56 1588.5 773.43 1583.02 788.3 1574.64 803.17 1564.65 818.04 1554.59 832.91 1546.01 847.79 1540.23 862.66 1527.14 862.37 1514.06 863.62 1500.97 866.3 1487.89 870.17 1474.8 874.9 1461.71 880.07 1448.63 885.23 1435.54 889.94 1422.45 893.78 1409.37 896.42 1396.28 897.63 1383.2 897.3 1370.11 895.47 1357.02 892.28 1343.94 888.03 1330.85 883.07 1317.77 877.85 1304.68 872.82 1291.59 868.41 1278.51 865 1265.42 862.91 1252.34 862.3 1239.25 863.24 1226.16 865.63 1213.08 869.28 1199.99 873.86 1186.91 878.97 1173.82 884.18 1160.73 889.02 1147.65 893.07 1134.56 895.98 1121.48 897.5 1108.39 897.5 1095.3 895.97 1082.22 893.05 1069.13 888.99 1056.05 884.15 1042.96 878.94 1029.87 873.83 1016.79 869.26 1003.7 865.62 990.61 863.23 977.53 862.3 964.44 862.92 951.36 865.02 938.27 868.43 925.18 872.84 912.1 877.88 899.01 883.1 885.93 888.06 872.84 892.3 859.75 895.48 846.67 897.31 833.58 897.63 820.5 896.41 807.41 893.76 794.32 889.92 781.24 885.21 768.15 880.04 755.07 874.87 741.98 870.15 728.89 866.28 715.81 863.61 702.72 862.37 689.64 862.66 676.55 864.47 663.46 867.62 650.38 871.85 637.29 876.8 624.21 882.02 611.12 887.06 598.03 891.49 584.95 894.92 571.86 897.05 558.78 897.69 545.69 896.79 532.6 894.43 519.52 890.81 506.43 886.24 493.35 881.14 480.26 875.93 467.17 871.08 454.09 867 441 864.06 427.92 862.5 414.83 862.47 401.74 863.97 388.66 866.86 375.57 870.9 362.49 875.73 349.4 880.93 336.31 886.05 323.23 890.64 310.14 894.3 297.06 896.72 283.97 897.68 270.88 897.1 257.8 895.03 244.71 891.65 231.63 887.26 218.54 882.23 205.45 877 192.37 872.04 179.28 867.77 166.2 864.57 153.11 862.71 140.02 862.35 126.94 863.53 113.85 866.15 100.77 869.97 87.68 874.67 74.59 879.83 61.51 885 48.42 889.74 35.34 893.63 22.25 896.33 9.16 897.61 -3.91 897.35 -17 895.58 -30.08 892.46 -43.17 888.24 -56.25 883.31 -69.34 878.09 -82.43 873.04 -95.51 868.59 -108.6 865.13 -121.68 862.97 -134.77 862.3 -136.56 847.43 -139.21 832.56 -142.33 817.69 -145.42 802.82 -148.01 787.95 -149.71 773.09 -150.25 758.22 -149.55 743.35 -147.72 728.48 -145.03 713.61 -141.91 698.74 -138.83 683.87 -136.27 669 -134.62 654.14 -134.13 639.27 -134.88 624.4 -136.75 609.53 -139.46 594.66 -142.59 579.79 -145.65 564.92 -148.19 550.05 -149.8 535.18 -150.24 520.32 -149.44 505.45 -147.52 490.58 -144.79 475.71 -141.65 460.84 -138.6 445.97 -136.1 431.1 -134.53 416.23 -134.14 401.37 -134.99 386.5 -136.95 371.63 -139.71 356.76 -142.85 341.89 -145.89 327.02 -148.36 312.15 -149.88 297.28 -150.22 282.42 -149.32 267.55 -147.32 252.68 -144.54 237.81 -141.39 222.94 -138.36 208.07 -135.93 193.2 -134.45 178.33 -134.17 163.47 -135.12 148.6 -137.15 133.73 -139.96 118.86 -143.11 103.99 -146.12 89.12 -148.53 74.25 -149.95 59.38 -150.19 44.52 -149.19 29.65 -147.12 14.78 -144.28 -0.08 -141.13 -14.95 -138.13 -29.82 -135.76 -44.69 -134.38 -59.56 -134.2 -74.42 -135.25 -89.29" fill="url(#uuunion-grad)"></path><path d="M-135.26 -89.29Q-134.21 -74.42 -134.39 -59.56 -135.77 -44.69 -138.14 -29.82 -141.14 -14.95 -144.29 -0.08 -147.13 14.78 -149.2 29.65 -150.2 44.52 -149.96 59.38 -148.54 74.25 -146.13 89.12 -143.12 103.99 -139.97 118.86 -137.16 133.73 -135.13 148.6 -134.18 163.47 -134.46 178.33 -135.94 193.2 -138.37 208.07 -141.4 222.94 -144.55 237.81 -147.33 252.68 -149.33 267.55 -150.23 282.42 -149.89 297.28 -148.37 312.15 -145.9 327.02 -142.86 341.89 -139.72 356.76 -136.96 371.63 -135 386.5 -126.27 386.71 -117.54 387.44 -108.82 388.66 -100.09 390.32 -91.36 392.35 -82.63 394.69 -73.9 397.22 -65.17 399.87 -56.44 402.52 -47.71 405.08 -38.98 407.43 -30.26 409.5 -21.53 411.19 -12.8 412.46 3.69 413.42 6.61 413.48 17.3 409.78 27.99 405.3 38.67 400.12 49.36 394.38 60.05 388.24 70.75 381.88 81.46 375.49 92.2 369.27 102.95 363.41 113.74 358.07 124.55 353.39 135.4 349.45 146.28 346.3 157.19 343.94 168.15 342.32 179.14 341.35 190.17 340.88 201.23 340.77 212.34 340.83 223.48 340.85 234.65 340.67 245.85 340.09 257.09 338.96 268.35 337.18 279.63 334.65 290.93 331.35 302.25 327.29 313.57 322.53 324.91 317.17 336.24 311.34 347.58 305.23 358.9 299 370.22 292.84 381.52 286.94 392.8 281.46 404.05 276.54 415.28 272.3 426.47 268.79 437.63 266.03 448.75 263.99 459.83 262.62 470.86 261.8 481.85 261.39 492.79 261.22 503.69 261.11 514.53 260.89 525.33 260.37 536.08 259.4 546.79 257.86 557.45 255.65 568.07 252.71 578.65 249.04 589.2 244.68 599.71 239.7 610.2 234.22 620.67 228.39 631.12 222.36 641.56 216.31 651.99 210.43 662.43 204.87 672.87 199.78 683.33 195.28 693.8 191.45 704.3 188.32 714.84 185.9 725.41 184.14 736.03 182.95 746.7 182.22 757.43 181.79 768.22 181.51 779.07 181.19 790.01 180.68 801.01 179.81 812.1 178.46 823.27 176.5 834.52 173.89 845.87 170.59 857.3 166.61 868.82 162.01 880.42 156.88 892.11 151.34 903.89 145.55 915.75 139.66 927.69 133.84 939.7 128.26 951.78 123.05 963.92 118.35 976.13 114.25 988.38 110.8 1000.67 108.02 1013 105.89 1025.36 104.34 1037.73 103.27 1050.11 102.56 1062.49 102.06 1074.86 101.61 1087.21 101.05 1099.52 100.23 1111.8 99 1124.02 97.26 1136.18 94.92 1148.27 91.94 1160.28 88.31 1172.2 84.08 1184.03 79.3 1195.75 74.08 1207.36 68.55 1218.85 62.86 1230.21 57.15 1241.45 51.6 1252.56 46.33 1263.53 41.49 1274.36 37.17 1285.05 33.44 1295.6 30.34 1306.02 27.86 1316.3 25.95 1326.44 24.54 1336.46 23.54 1346.36 22.79 1356.13 22.17 1365.8 21.51 1375.36 20.68 1384.83 19.52 1394.22 17.94 1403.54 15.82 1412.79 13.13 1422 9.83 1411.68 -7.81 1403.51 -25.47 1399.19 -43.12 1399.62 -60.77 1404.72 -78.42 1413.42 -96.07 1423.9 -113.72 1433.99 -131.37 1421.55 -131.26 1409.11 -131.79 1396.67 -132.94 1384.23 -134.61 1371.79 -136.68 1359.35 -139 1346.91 -141.4 1334.47 -143.69 1322.03 -145.7 1309.59 -147.29 1297.15 -148.34 1284.71 -148.76 1272.27 -148.54 1259.83 -147.68 1247.39 -146.24 1234.95 -144.35 1222.51 -142.12 1210.07 -139.74 1197.63 -137.38 1185.19 -135.22 1172.75 -133.41 1160.31 -132.09 1147.87 -131.35 1135.43 -131.26 1122.99 -131.82 1110.55 -132.99 1098.11 -134.68 1085.67 -136.77 1073.24 -139.09 1060.8 -141.48 1048.36 -143.76 1035.92 -145.76 1023.48 -147.34 1011.04 -148.36 998.6 -148.77 986.16 -148.52 973.72 -147.63 961.28 -146.18 948.84 -144.27 936.4 -142.04 923.96 -139.66 911.52 -137.3 899.08 -135.14 886.64 -133.35 874.2 -132.05 861.76 -131.34 849.32 -131.27 836.88 -131.86 824.44 -133.04 812 -134.75 799.56 -136.85 787.12 -139.18 774.68 -141.57 762.24 -143.84 749.8 -145.83 737.36 -147.38 724.92 -148.39 712.49 -148.77 700.05 -148.49 687.61 -147.59 675.17 -146.12 662.73 -144.19 650.29 -141.96 637.85 -139.57 625.41 -137.22 612.97 -135.07 600.53 -133.29 588.09 -132.01 575.65 -131.32 563.21 -131.28 550.77 -131.89 538.33 -133.1 525.89 -134.82 513.45 -136.93 501.01 -139.26 488.57 -141.65 476.13 -143.92 463.69 -145.89 451.25 -147.43 438.81 -148.41 426.37 -148.77 413.93 -148.47 401.49 -147.55 389.05 -146.06 376.61 -144.12 364.17 -141.87 351.74 -139.49 339.3 -137.14 326.86 -135 314.42 -133.24 301.98 -131.98 289.54 -131.31 277.1 -131.29 264.66 -131.92 252.22 -133.15 239.78 -134.89 227.34 -137.01 214.9 -139.35 202.46 -141.74 190.02 -144 177.58 -145.96 165.14 -147.48 152.7 -148.44 140.26 -148.77 127.82 -148.45 115.38 -147.5 102.94 -145.99 90.5 -144.04 78.06 -141.79 65.62 -139.4 53.18 -137.06 40.74 -134.93 28.3 -133.18 15.86 -131.94 3.42 -131.3 -9.01 -131.3 -21.44 -131.96 -33.88 -133.21 -46.32 -134.96 -58.76 -137.09 -71.2 -139.44 -83.64 -141.82 -96.08 -144.07 -108.52 -146.02 -120.96 -147.52 -133.4 -148.46 -149.05 -141.23 -146.1 -118.93 -140.28 -104.13 -135.26 -89.29" fill="url(#uuunion-grad2)" filter="url(#uuunion-blur)"></path><path d="M1441.58 332.58Q1450.62 331.87 1459.66 330.71 1468.69 329.13 1477.73 327.19 1486.77 324.97 1495.81 322.56 1504.84 320.05 1513.88 317.54 1522.92 315.12 1531.95 312.89 1540.99 310.94 1550.03 309.34 1559.07 308.16 1568.1 307.43 1577.4 316 1566.35 342.16 1554.58 359.51 1544.81 376.86 1539.09 394.21 1538.59 411.56 1543.43 428.91 1552.6 446.26 1564.18 463.61 1575.76 480.96 1584.94 498.31 1589.79 515.66 1589.31 533.01 1583.6 550.36 1573.84 567.71 1562.07 585.06 1550.75 602.41 1542.23 619.76 1538.28 637.11 1539.74 654.46 1546.29 671.81 1556.57 689.16 1568.44 706.51 1579.43 723.86 1587.24 741.21 1590.25 758.56 1587.83 775.91 1580.49 793.26 1569.75 810.61 1557.86 827.96 1547.28 845.31 1540.23 862.66 1528.23 862.34 1516.22 863.31 1504.22 865.51 1492.22 868.78 1480.21 872.87 1468.21 877.47 1456.21 882.27 1444.2 886.9 1432.2 891.02 1420.2 894.33 1408.19 896.59 1396.19 897.63 1384.19 897.38 1372.18 895.85 1360.18 893.16 1348.18 889.5 1336.17 885.15 1324.17 880.41 1312.17 875.65 1300.16 871.2 1288.16 867.4 1276.16 864.53 1264.15 862.78 1252.15 862.31 1240.15 863.13 1228.15 865.18 1216.14 868.33 1204.14 872.33 1192.14 876.89 1180.13 881.68 1168.13 886.35 1156.13 890.55 1144.12 893.98 1132.12 896.38 1120.12 897.58 1108.11 897.48 1096.11 896.11 1084.11 893.55 1072.1 889.99 1060.1 885.71 1048.1 881 1036.09 876.22 1024.09 871.72 1012.09 867.82 1000.08 864.82 988.08 862.93 976.08 862.3 964.07 862.96 952.07 864.87 940.07 867.89 928.06 871.8 916.06 876.32 904.06 881.1 892.05 885.8 880.05 890.07 868.05 893.61 856.04 896.15 844.04 897.5 832.04 897.56 820.03 896.34 808.03 893.92 796.03 890.47 784.02 886.26 772.02 881.59 760.02 876.8 748.01 872.24 736.01 868.26 724.01 865.13 712.01 863.1 700 862.3 688 862.81 676 864.57 663.99 867.47 651.99 871.29 639.99 875.74 627.98 880.51 615.98 885.24 603.98 889.58 591.97 893.23 579.97 895.9 567.97 897.4 555.96 897.63 543.96 896.56 531.96 894.27 519.95 890.94 507.95 886.81 495.95 882.17 483.94 877.38 471.94 872.78 459.94 868.7 447.93 865.46 435.93 863.28 423.93 862.33 411.92 862.68 399.92 864.29 387.92 867.06 375.91 870.78 363.91 875.17 351.91 879.92 339.9 884.68 327.9 889.09 315.9 892.83 303.89 895.63 291.89 897.28 279.89 897.67 267.88 896.76 255.88 894.61 243.88 891.4 231.87 887.35 219.87 882.76 207.87 877.96 195.87 873.32 183.86 869.16 171.86 865.8 159.86 863.48 147.85 862.38 135.85 862.56 123.85 864.03 111.84 866.67 99.84 870.28 87.84 874.61 75.83 879.33 63.83 884.1 51.83 888.58 39.82 892.42 27.82 895.34 9.46 892.38 2.13 877.52 0.93 867.43 -0.4 857.34 -1.77 847.25 -3.09 837.17 -4.49 822.04 -4.21 817 8.06 810.04 20.49 801.85 33.07 792.57 45.78 782.44 58.6 771.77 71.51 760.9 84.48 750.18 97.5 739.95 110.53 730.52 123.55 722.12 136.55 714.91 149.49 708.95 162.37 704.22 175.17 700.59 187.88 697.85 200.5 695.73 213.04 693.9 225.49 692.04 237.87 689.8 250.19 686.87 262.47 683.02 274.72 678.06 286.97 671.9 299.23 664.54 311.52 656.08 323.87 646.69 336.29 636.63 348.8 626.17 361.39 615.66 374.09 605.41 386.88 595.73 399.77 586.88 412.75 579.05 425.8 572.36 438.91 566.82 452.06 562.38 465.21 558.89 478.36 556.14 491.47 553.84 504.51 551.7 517.45 549.4 530.27 546.64 542.96 543.15 555.48 538.73 567.83 533.25 579.99 526.66 591.97 518.98 603.78 510.35 615.41 500.94 626.88 491 638.23 480.83 649.48 470.71 660.66 460.96 671.81 451.82 682.97 443.53 694.18 436.22 705.49 429.97 716.93 424.78 728.55 420.54 740.39 417.11 752.47 414.26 764.82 411.73 777.45 409.22 790.38 406.46 800.09 407.59 809.82 408.31 819.57 408.52 829.34 408.16 839.12 407.19 848.92 405.59 858.74 403.39 868.57 400.62 878.43 397.37 888.3 393.71 898.19 389.77 908.1 385.68 918.03 381.55 927.98 377.53 937.95 373.75 947.94 370.32 957.94 367.34 967.97 364.89 978.01 363.03 988.07 361.79 998.15 361.16 1008.25 361.11 1018.37 361.59 1028.5 362.51 1038.65 363.78 1048.82 365.27 1059.01 366.87 1069.21 368.43 1079.42 369.82 1089.66 370.93 1099.9 371.64 1110.16 371.87 1120.44 371.54 1130.73 370.62 1141.03 369.09 1151.34 366.96 1161.66 364.28 1171.99 361.11 1182.34 357.55 1192.69 353.69 1203.05 349.67 1213.42 345.61 1223.79 341.64 1234.17 337.89 1244.56 334.48 1254.95 331.5 1265.34 329.03 1275.74 327.13 1286.13 325.83 1296.53 325.13 1306.92 325 1317.32 325.39 1327.71 326.23 1338.1 327.41 1348.48 328.82 1358.86 330.34 1369.24 331.84 1379.6 333.2 1389.96 334.28 1400.3 334.98 1410.64 335.22 1420.97 334.92 1431.28 334.05 1441.58 332.58" fill="url(#uuunion-grad3)" filter="url(#uuunion-blur2)"></path></svg>