<?xml version="1.0" standalone="no"?><svg xmlns="http://www.w3.org/2000/svg" viewBox="0 0 1440 320"><path fill="#ffffff" fill-opacity="1" d="M0,0L6.2,21.3C12.3,43,25,85,37,117.3C49.2,149,62,171,74,192C86.2,213,98,235,111,256C123.1,277,135,299,148,272C160,245,172,171,185,128C196.9,85,209,75,222,58.7C233.8,43,246,21,258,58.7C270.8,96,283,192,295,213.3C307.7,235,320,181,332,133.3C344.6,85,357,43,369,42.7C381.5,43,394,85,406,128C418.5,171,431,213,443,197.3C455.4,181,468,107,480,69.3C492.3,32,505,32,517,64C529.2,96,542,160,554,181.3C566.2,203,578,181,591,192C603.1,203,615,245,628,234.7C640,224,652,160,665,165.3C676.9,171,689,245,702,277.3C713.8,309,726,299,738,261.3C750.8,224,763,160,775,149.3C787.7,139,800,181,812,218.7C824.6,256,837,288,849,266.7C861.5,245,874,171,886,160C898.5,149,911,203,923,202.7C935.4,203,948,149,960,144C972.3,139,985,181,997,170.7C1009.2,160,1022,96,1034,106.7C1046.2,117,1058,203,1071,245.3C1083.1,288,1095,288,1108,250.7C1120,213,1132,139,1145,144C1156.9,149,1169,235,1182,272C1193.8,309,1206,299,1218,266.7C1230.8,235,1243,181,1255,176C1267.7,171,1280,213,1292,229.3C1304.6,245,1317,235,1329,218.7C1341.5,203,1354,181,1366,160C1378.5,139,1391,117,1403,106.7C1415.4,96,1428,96,1434,96L1440,96L1440,320L1433.8,320C1427.7,320,1415,320,1403,320C1390.8,320,1378,320,1366,320C1353.8,320,1342,320,1329,320C1316.9,320,1305,320,1292,320C1280,320,1268,320,1255,320C1243.1,320,1231,320,1218,320C1206.2,320,1194,320,1182,320C1169.2,320,1157,320,1145,320C1132.3,320,1120,320,1108,320C1095.4,320,1083,320,1071,320C1058.5,320,1046,320,1034,320C1021.5,320,1009,320,997,320C984.6,320,972,320,960,320C947.7,320,935,320,923,320C910.8,320,898,320,886,320C873.8,320,862,320,849,320C836.9,320,825,320,812,320C800,320,788,320,775,320C763.1,320,751,320,738,320C726.2,320,714,320,702,320C689.2,320,677,320,665,320C652.3,320,640,320,628,320C615.4,320,603,320,591,320C578.5,320,566,320,554,320C541.5,320,529,320,517,320C504.6,320,492,320,480,320C467.7,320,455,320,443,320C430.8,320,418,320,406,320C393.8,320,382,320,369,320C356.9,320,345,320,332,320C320,320,308,320,295,320C283.1,320,271,320,258,320C246.2,320,234,320,222,320C209.2,320,197,320,185,320C172.3,320,160,320,148,320C135.4,320,123,320,111,320C98.5,320,86,320,74,320C61.5,320,49,320,37,320C24.6,320,12,320,6,320L0,320Z"></path></svg>